<svg xmlns="http://www.w3.org/2000/svg" viewBox="-42 -32 84 38" width="336" height="152"><path d="M -26 0 A 26 26 0 0 1 26 0" fill="none" stroke="#1a1917" stroke-width="3.4"></path><line x1="-6.279" y1="-1.682" x2="-21.733" y2="-5.823" stroke="#1a1917" stroke-width="1.7" stroke-linecap="round"></line><line x1="-5.629" y1="-3.25" x2="-19.486" y2="-11.25" stroke="#1a1917" stroke-width="1.7" stroke-linecap="round"></line><line x1="-4.596" y1="-4.596" x2="-15.91" y2="-15.91" stroke="#1a1917" stroke-width="1.7" stroke-linecap="round"></line><line x1="-3.25" y1="-5.629" x2="-11.25" y2="-19.486" stroke="#1a1917" stroke-width="1.7" stroke-linecap="round"></line><line x1="-1.682" y1="-6.279" x2="-5.823" y2="-21.733" stroke="#1a1917" stroke-width="1.7" stroke-linecap="round"></line><line x1="0" y1="-6.5" x2="0" y2="-22.5" stroke="#1a1917" stroke-width="1.7" stroke-linecap="round"></line><line x1="1.682" y1="-6.279" x2="5.823" y2="-21.733" stroke="#1a1917" stroke-width="1.7" stroke-linecap="round"></line><line x1="3.25" y1="-5.629" x2="11.25" y2="-19.486" stroke="#1a1917" stroke-width="1.7" stroke-linecap="round"></line><line x1="4.596" y1="-4.596" x2="15.91" y2="-15.91" stroke="#1a1917" stroke-width="1.7" stroke-linecap="round"></line><line x1="5.629" y1="-3.25" x2="19.486" y2="-11.25" stroke="#1a1917" stroke-width="1.7" stroke-linecap="round"></line><line x1="6.279" y1="-1.682" x2="21.733" y2="-5.823" stroke="#1a1917" stroke-width="1.7" stroke-linecap="round"></line><line x1="-38" y1="0" x2="38" y2="0" stroke="#1a1917" stroke-width="3.4" stroke-linecap="round"></line><path d="M -5.5 0 A 5.5 5.5 0 0 1 5.5 0 Z" fill="#1a1917"></path></svg>